<svg version="1.1" xmlns="http://www.w3.org/2000/svg" viewBox="0 0 279 400.5" width="279" height="400.5">
  <!-- svg-source:excalidraw -->
  
  <defs>
    <style class="style-fonts">
      @font-face {
        font-family: "Virgil";
        src: url("https://excalidraw.com/Virgil.woff2");
      }
      @font-face {
        font-family: "Cascadia";
        src: url("https://excalidraw.com/Cascadia.woff2");
      }
    </style>
  </defs>
  <g stroke-linecap="round" transform="translate(93.5 10) rotate(0 45.5 26.5)"><path d="M35.86 1.26 C44.21 -0.12, 56.03 -0.22, 64.26 1.91 C72.49 4.04, 80.93 9.43, 85.24 14.03 C89.55 18.63, 91.14 24.47, 90.13 29.51 C89.11 34.54, 84.84 40.37, 79.15 44.26 C73.47 48.15, 64.54 51.74, 56.01 52.85 C47.49 53.96, 36.3 52.95, 27.99 50.9 C19.69 48.85, 10.66 44.96, 6.17 40.55 C1.68 36.15, 0.2 29.82, 1.06 24.49 C1.93 19.17, 4.94 12.75, 11.36 8.58 C17.78 4.41, 34.62 0.81, 39.59 -0.52 C44.56 -1.85, 41.17 0.19, 41.18 0.61 M58.31 1.84 C66.49 2.58, 75.37 4.9, 80.87 9.12 C86.37 13.34, 90.77 21.81, 91.32 27.16 C91.86 32.5, 89.41 37.31, 84.16 41.2 C78.9 45.09, 68.37 48.66, 59.78 50.48 C51.19 52.3, 40.88 53.5, 32.64 52.14 C24.39 50.77, 15.95 46.36, 10.33 42.29 C4.71 38.22, -0.85 32.75, -1.09 27.72 C-1.33 22.68, 3.66 16.31, 8.87 12.09 C14.09 7.86, 22.02 4.35, 30.19 2.35 C38.35 0.36, 53.35 0.02, 57.86 0.09 C62.37 0.16, 57.3 2.07, 57.26 2.8" stroke="#ffffff" stroke-width="1" fill="none"></path></g><g transform="translate(132.26664389741836 23.76167029855648) rotate(0 6.55999755859375 12.5)"><text x="6.55999755859375" y="0" font-family="Virgil, Segoe UI Emoji" font-size="20px" fill="#ffffff" text-anchor="middle" style="white-space: pre;" direction="ltr" dominant-baseline="text-before-edge">A</text></g><g stroke-linecap="round" transform="translate(10 145.5) rotate(0 45.5 26.5)"><path d="M64.75 2.12 C72.54 4.06, 82.23 9.94, 86.38 14.75 C90.53 19.56, 91 26.02, 89.65 30.98 C88.3 35.94, 84.42 40.97, 78.29 44.52 C72.15 48.07, 61.7 51.32, 52.84 52.26 C43.98 53.21, 33.12 52.54, 25.1 50.2 C17.08 47.87, 8.67 43, 4.71 38.25 C0.75 33.5, 0.13 26.87, 1.36 21.7 C2.59 16.53, 6.17 10.79, 12.09 7.24 C18.01 3.69, 27.25 0.8, 36.89 0.4 C46.53 0.01, 63.62 3.74, 69.92 4.89 C76.21 6.04, 75.01 6.97, 74.67 7.31 M46.25 -1.06 C55.06 -1.81, 66.07 0.64, 73.3 4.02 C80.53 7.39, 87.02 13.94, 89.62 19.2 C92.22 24.45, 91.69 30.59, 88.89 35.55 C86.09 40.5, 80.18 45.89, 72.82 48.93 C65.46 51.97, 53.74 53.87, 44.75 53.79 C35.75 53.7, 26.16 51.86, 18.84 48.42 C11.52 44.98, 3.68 38.07, 0.82 33.13 C-2.04 28.19, -1.51 23.6, 1.68 18.81 C4.87 14.02, 12.84 7.72, 19.93 4.4 C27.02 1.08, 39.77 -0.41, 44.22 -1.12 C48.68 -1.84, 46.24 -0.36, 46.67 0.11" stroke="#ffffff" stroke-width="1" fill="none"></path></g><g transform="translate(48.056644812945706 159.2616702985565) rotate(0 7.269996643066406 12.5)"><text x="7.269996643066406" y="0" font-family="Virgil, Segoe UI Emoji" font-size="20px" fill="#ffffff" text-anchor="middle" style="white-space: pre;" direction="ltr" dominant-baseline="text-before-edge">B</text></g><g stroke-linecap="round" transform="translate(157 124.5) rotate(0 45.5 26.5)"><path d="M30.24 2.35 C38.06 0.3, 49.68 -0.34, 58.48 1.1 C67.27 2.54, 77.73 6.76, 83.01 10.99 C88.29 15.22, 90.12 21.44, 90.16 26.47 C90.2 31.5, 88.34 36.84, 83.24 41.16 C78.14 45.48, 68.28 50.63, 59.57 52.39 C50.87 54.15, 39.54 53.35, 31.02 51.72 C22.5 50.09, 13.73 46.78, 8.45 42.62 C3.18 38.46, -0.61 32.05, -0.64 26.74 C-0.66 21.44, 1.7 15.34, 8.32 10.78 C14.94 6.22, 32.72 1.21, 39.09 -0.62 C45.46 -2.44, 46.6 -0.87, 46.53 -0.15 M62.47 1.44 C70.51 3.09, 78.12 8.12, 82.74 12.66 C87.36 17.21, 90.39 23.74, 90.2 28.72 C90.01 33.7, 86.83 38.49, 81.59 42.57 C76.36 46.65, 67.28 51.54, 58.8 53.19 C50.32 54.83, 39.31 54.46, 30.71 52.42 C22.11 50.38, 12.09 45.56, 7.2 40.94 C2.32 36.32, 1.13 29.84, 1.4 24.71 C1.68 19.57, 3.45 14.02, 8.85 10.13 C14.26 6.24, 25.11 2.94, 33.84 1.37 C42.56 -0.19, 56.52 0.44, 61.21 0.75 C65.9 1.07, 62.18 2.78, 61.99 3.26" stroke="#ffffff" stroke-width="1" fill="none"></path></g><g stroke-linecap="round" transform="translate(74 241.5) rotate(0 45.5 26.5)"><path d="M27.89 2.8 C35.49 0.84, 48.16 0.23, 56.94 1.4 C65.72 2.56, 75.01 5.8, 80.6 9.81 C86.18 13.82, 89.97 20.44, 90.43 25.46 C90.89 30.47, 88.19 35.67, 83.35 39.9 C78.52 44.13, 69.47 48.8, 61.41 50.84 C53.34 52.89, 43.56 53.44, 34.98 52.18 C26.4 50.91, 15.8 47.15, 9.92 43.26 C4.05 39.37, 0.33 34.12, -0.29 28.83 C-0.92 23.54, 0.41 16.29, 6.18 11.5 C11.95 6.72, 28.41 1.92, 34.33 0.13 C40.26 -1.66, 41.47 0.1, 41.75 0.76 M57.08 1.89 C65.36 2.68, 74.37 5.6, 79.99 9.77 C85.61 13.95, 90.1 21.5, 90.77 26.91 C91.44 32.33, 89.2 38.3, 84.01 42.25 C78.82 46.19, 68.08 48.91, 59.65 50.57 C51.22 52.23, 41.83 53.49, 33.45 52.2 C25.08 50.91, 15.11 47.2, 9.41 42.83 C3.71 38.45, -0.29 31.1, -0.74 25.96 C-1.19 20.82, 1.81 16.1, 6.71 11.99 C11.61 7.89, 19.96 3.25, 28.67 1.32 C37.38 -0.61, 53.97 0.61, 58.97 0.4 C63.98 0.19, 59.27 -0.36, 58.69 0.06" stroke="#ffffff" stroke-width="1" fill="none"></path></g><g transform="translate(111.52664603364883 255.2616702985565) rotate(0 7.799995422363281 12.5)"><text x="7.799995422363281" y="0" font-family="Virgil, Segoe UI Emoji" font-size="20px" fill="#ffffff" text-anchor="middle" style="white-space: pre;" direction="ltr" dominant-baseline="text-before-edge">D</text></g><g stroke-linecap="round" transform="translate(178 337.5) rotate(0 45.5 26.5)"><path d="M57.92 0.48 C66.13 1.58, 74.42 6.33, 80.01 10.47 C85.59 14.61, 90.82 20.21, 91.43 25.33 C92.04 30.44, 88.68 36.66, 83.67 41.14 C78.65 45.62, 69.72 50.22, 61.33 52.2 C52.94 54.18, 41.89 54.45, 33.34 53.01 C24.78 51.58, 15.69 47.88, 9.98 43.59 C4.28 39.31, -0.38 32.69, -0.9 27.32 C-1.42 21.95, 1.95 15.54, 6.84 11.38 C11.74 7.21, 19.07 3.78, 28.49 2.3 C37.92 0.82, 56.97 2.37, 63.42 2.52 C69.86 2.68, 67.42 3.07, 67.14 3.23 M38.97 -1.07 C47.04 -1.88, 58.02 0.89, 66.08 3.52 C74.15 6.15, 83.36 10.38, 87.37 14.7 C91.37 19.02, 91.7 24.17, 90.14 29.46 C88.58 34.75, 84.19 42.4, 78 46.43 C71.82 50.47, 61.78 53.22, 53.04 53.66 C44.3 54.09, 33.73 51.51, 25.56 49.03 C17.39 46.55, 8.34 43.21, 4.01 38.77 C-0.31 34.33, -2.06 27.79, -0.39 22.39 C1.28 16.99, 7.55 10.24, 14.04 6.35 C20.53 2.46, 34.25 -0.03, 38.55 -0.93 C42.85 -1.83, 39.65 0.3, 39.83 0.97" stroke="#ffffff" stroke-width="1" fill="none"></path></g><g transform="translate(216.58664359224258 351.2616702985565) rotate(0 6.739997863769531 12.5)"><text x="6.739997863769531" y="0" font-family="Virgil, Segoe UI Emoji" font-size="20px" fill="#ffffff" text-anchor="middle" style="white-space: pre;" direction="ltr" dominant-baseline="text-before-edge">E</text></g><g stroke-linecap="round"><g transform="translate(120.80932991825603 62.20997283375482) rotate(0 -23.682774010417546 41.550971138354456)"><path d="M-0.36 0.15 C-8.4 13.95, -40.22 69.02, -48.02 82.78 M1.65 -0.81 C-6.58 13.12, -40.82 69.84, -49.01 83.91" stroke="#ffffff" stroke-width="1" fill="none"></path></g><g transform="translate(120.80932991825603 62.20997283375482) rotate(0 -23.682774010417546 41.550971138354456)"><path d="M-43.17 54.28 C-46.48 65.06, -48.35 72.91, -48.54 84.29 M-43.45 54.1 C-46.06 66.5, -47.85 75.91, -49.33 83.19" stroke="#ffffff" stroke-width="1" fill="none"></path></g><g transform="translate(120.80932991825603 62.20997283375482) rotate(0 -23.682774010417546 41.550971138354456)"><path d="M-25.53 64.77 C-34.44 72.17, -41.91 76.69, -48.54 84.29 M-25.81 64.59 C-35.17 72.98, -43.63 78.42, -49.33 83.19" stroke="#ffffff" stroke-width="1" fill="none"></path></g></g><mask></mask><g stroke-linecap="round"><g transform="translate(161.3063382332466 60.702607019353934) rotate(0 8.562273058808103 31.390552453380536)"><path d="M-1.18 -0.54 C1.76 9.87, 15.23 51.57, 18.3 62.19 M0.4 1.8 C3.17 12.37, 14.99 52.84, 17.64 63.32" stroke="#ffffff" stroke-width="1" fill="none"></path></g><g transform="translate(161.3063382332466 60.702607019353934) rotate(0 8.562273058808103 31.390552453380536)"><path d="M-0.61 39.74 C5.11 46.92, 12.98 57.86, 18.65 62.86 M0.17 38.74 C5.26 44.82, 10.47 52.55, 16.86 63.07" stroke="#ffffff" stroke-width="1" fill="none"></path></g><g transform="translate(161.3063382332466 60.702607019353934) rotate(0 8.562273058808103 31.390552453380536)"><path d="M19.18 34.31 C17.84 43.23, 18.66 56.1, 18.65 62.86 M19.96 33.31 C19.49 41.05, 19.09 50.31, 16.86 63.07" stroke="#ffffff" stroke-width="1" fill="none"></path></g></g><mask></mask><g stroke-linecap="round"><g transform="translate(136.5 64) rotate(0 -7.382609113524666 86.76950897276402)"><path d="M1 -0.68 C-1.35 28.41, -12.31 145.14, -14.88 174.22 M0.06 1.58 C-2.37 30.31, -13.28 143.31, -15.76 172.21" stroke="#ffffff" stroke-width="1" fill="none"></path></g><g transform="translate(136.5 64) rotate(0 -7.382609113524666 86.76950897276402)"><path d="M-24.54 143.4 C-21.31 151, -20.26 154.89, -16.54 172.25 M-23.17 143.99 C-19.51 154.72, -17.42 165.3, -16.07 172.53" stroke="#ffffff" stroke-width="1" fill="none"></path></g><g transform="translate(136.5 64) rotate(0 -7.382609113524666 86.76950897276402)"><path d="M-4.1 145.28 C-5.69 152.61, -9.46 156.05, -16.54 172.25 M-2.74 145.86 C-6.54 155.9, -11.88 165.79, -16.07 172.53" stroke="#ffffff" stroke-width="1" fill="none"></path></g></g><mask></mask><g stroke-linecap="round"><g transform="translate(185.5 38) rotate(0 37.72002121956086 147.95382925025652)"><path d="M0.27 0.39 C12.67 15.72, 68.47 42.03, 75.53 91.36 C82.6 140.69, 48.25 262.13, 42.64 296.36 M-1.05 -0.45 C11.13 15.08, 67.66 43.45, 74.87 92.56 C82.08 141.67, 47.68 260.54, 42.21 294.2" stroke="#ffffff" stroke-width="1" fill="none"></path></g><g transform="translate(185.5 38) rotate(0 37.72002121956086 147.95382925025652)"><path d="M38.91 265.35 C38.62 277.34, 41.85 287.89, 43.38 295.55 M38.5 264.74 C38.8 274.89, 41.5 284.34, 42.33 294.91" stroke="#ffffff" stroke-width="1" fill="none"></path></g><g transform="translate(185.5 38) rotate(0 37.72002121956086 147.95382925025652)"><path d="M58.95 269.77 C50.71 280.05, 45.99 288.84, 43.38 295.55 M58.54 269.15 C52.39 278.08, 48.64 286.11, 42.33 294.91" stroke="#ffffff" stroke-width="1" fill="none"></path></g></g><mask></mask><g stroke-linecap="round"><g transform="translate(182.81995851216823 178.04473649028523) rotate(0 -16.792694158342613 32.26084416134481)"><path d="M0.83 -0.39 C-4.97 10.47, -28.48 54.21, -34.42 65.08 M-0.19 -1.64 C-5.65 9.36, -26.76 54.97, -32.14 66.16" stroke="#ffffff" stroke-width="1" fill="none"></path></g><g transform="translate(182.81995851216823 178.04473649028523) rotate(0 -16.792694158342613 32.26084416134481)"><path d="M-30.07 34.91 C-31.77 44.29, -33.11 56.79, -30.47 68.13 M-29.95 35.96 C-30.62 45.63, -31.64 55.42, -32.17 65.2" stroke="#ffffff" stroke-width="1" fill="none"></path></g><g transform="translate(182.81995851216823 178.04473649028523) rotate(0 -16.792694158342613 32.26084416134481)"><path d="M-11.5 43.65 C-19.38 50.25, -26.9 59.84, -30.47 68.13 M-11.39 44.71 C-17.86 51.73, -24.68 58.78, -32.17 65.2" stroke="#ffffff" stroke-width="1" fill="none"></path></g></g><mask></mask><g stroke-linecap="round"><g transform="translate(211.73987027818998 179.9634317977904) rotate(0 -1.4175718346276085 78.25724495002709)"><path d="M-0.58 0.71 C-1.01 26.57, -2.83 129.34, -2.96 154.99 M1.32 0.04 C0.72 26.1, -3.69 130.53, -4.16 156.47" stroke="#ffffff" stroke-width="1" fill="none"></path></g><g transform="translate(211.73987027818998 179.9634317977904) rotate(0 -1.4175718346276085 78.25724495002709)"><path d="M-12.33 127.18 C-11.21 137.61, -9.28 145.31, -3.74 154.73 M-14.28 128.92 C-10.57 134.25, -8.53 140.88, -4.59 156.6" stroke="#ffffff" stroke-width="1" fill="none"></path></g><g transform="translate(211.73987027818998 179.9634317977904) rotate(0 -1.4175718346276085 78.25724495002709)"><path d="M8.18 127.83 C3.77 137.99, 0.16 145.51, -3.74 154.73 M6.23 129.57 C5.39 134.63, 2.89 141.11, -4.59 156.6" stroke="#ffffff" stroke-width="1" fill="none"></path></g></g><mask></mask><g stroke-linecap="round"><g transform="translate(143.5 293) rotate(0 24.236193028092373 25.073659047484398)"><path d="M-0.53 -0.68 C7.69 7.92, 41.08 42.39, 49 50.83 M1.4 1.58 C9.57 9.91, 40.58 40.87, 48.57 49.14" stroke="#ffffff" stroke-width="1" fill="none"></path></g><g transform="translate(143.5 293) rotate(0 24.236193028092373 25.073659047484398)"><path d="M20.34 37.93 C30.23 38.25, 36.2 44.27, 49.84 50.89 M22.34 36.28 C30.93 41.74, 40.07 46.52, 48.2 49.62" stroke="#ffffff" stroke-width="1" fill="none"></path></g><g transform="translate(143.5 293) rotate(0 24.236193028092373 25.073659047484398)"><path d="M34.96 23.52 C40.73 27.75, 42.68 37.73, 49.84 50.89 M36.96 21.87 C40.25 32.47, 44.14 42.43, 48.2 49.62" stroke="#ffffff" stroke-width="1" fill="none"></path></g></g><mask></mask><g transform="translate(197.5 139) rotate(0 6.439994812011719 12.5)"><text x="0" y="0" font-family="Virgil, Segoe UI Emoji" font-size="20px" fill="#ffffff" text-anchor="start" style="white-space: pre;" direction="ltr" dominant-baseline="text-before-edge">C</text></g></svg>