<svg version="1.1" xmlns="http://www.w3.org/2000/svg" viewBox="0 0 1054.5 689" width="1054.5" height="689">
  <!-- svg-source:excalidraw -->
  
  <defs>
    <style class="style-fonts">
      @font-face {
        font-family: "Virgil";
        src: url("https://excalidraw.com/Virgil.woff2");
      }
      @font-face {
        font-family: "Cascadia";
        src: url("https://excalidraw.com/Cascadia.woff2");
      }
    </style>
  </defs>
  <g stroke-linecap="round" transform="translate(187 10.25) rotate(0 74.5 89)"><path d="M32 0 M32 0 C59.73 -2.6, 84.33 -1.11, 117 0 M32 0 C51.06 -0.88, 68.67 -0.07, 117 0 M117 0 C136.79 0.21, 147.94 10.2, 149 32 M117 0 C137.33 -0.43, 150.5 10.98, 149 32 M149 32 C148.01 63.72, 148.22 96.12, 149 146 M149 32 C149.97 71.45, 150.74 112.46, 149 146 M149 146 C149.8 167.1, 138.57 179.7, 117 178 M149 146 C150.34 168.47, 138.09 178.24, 117 178 M117 178 C98.77 177.71, 76.23 179.04, 32 178 M117 178 C99.36 178.76, 80.84 179.32, 32 178 M32 178 C10.52 178.96, 0.06 166.13, 0 146 M32 178 C8.58 178.19, -0.16 166.16, 0 146 M0 146 C1.32 113.75, 1.35 82.53, 0 32 M0 146 C0.54 102.78, -0.71 58.83, 0 32 M0 32 C-1.61 11.69, 9.42 1.27, 32 0 M0 32 C-1.63 8.74, 11.19 2.23, 32 0" stroke="#ffffff" stroke-width="1" fill="none"></path></g><g transform="translate(206.00003814697266 86.75) rotate(0 55.499961853027344 12.5)"><text x="55.499961853027344" y="0" font-family="Virgil, Segoe UI Emoji" font-size="20px" fill="#ffffff" text-anchor="middle" style="white-space: pre;" direction="ltr" dominant-baseline="text-before-edge">Contract A</text></g><g stroke-linecap="round" transform="translate(57.5 413.25) rotate(0 77.5 34.5)"><path d="M17.25 0 M17.25 0 C59.17 1.53, 101.08 1, 137.75 0 M17.25 0 C59.3 0.26, 100.03 1.85, 137.75 0 M137.75 0 C148.39 1.01, 153.67 4.94, 155 17.25 M137.75 0 C151.02 -1.88, 156.61 6.56, 155 17.25 M155 17.25 C154.37 24.36, 153.44 33.29, 155 51.75 M155 17.25 C155.39 29.42, 155.58 42.13, 155 51.75 M155 51.75 C154.52 64.89, 150.27 69.39, 137.75 69 M155 51.75 C153.92 64.64, 147.07 67.5, 137.75 69 M137.75 69 C108.44 70.63, 82.96 69.58, 17.25 69 M137.75 69 C109.89 67.74, 82.09 67.9, 17.25 69 M17.25 69 C6.57 67.57, 0.46 64.72, 0 51.75 M17.25 69 C5.1 70.92, 1.78 65.19, 0 51.75 M0 51.75 C0.02 43.21, -1.23 30.54, 0 17.25 M0 51.75 C-0.6 40.25, 0.44 26.28, 0 17.25 M0 17.25 C-0.1 4.26, 4.8 1.21, 17.25 0 M0 17.25 C-0.63 6.97, 6.58 0.02, 17.25 0" stroke="#ffffff" stroke-width="1" fill="none"></path></g><g stroke-linecap="round" transform="translate(10 328.25) rotate(0 248 140.5)"><path d="M32 0 M32 0 C140.78 -0.64, 247.65 -1, 464 0 M32 0 C148.41 1.3, 264.84 1.36, 464 0 M464 0 C484.94 0.15, 495.8 12.3, 496 32 M464 0 C484.71 0.99, 496.54 10.41, 496 32 M496 32 C495.72 87.51, 495.43 146.26, 496 249 M496 32 C498.19 80.94, 497.81 131.2, 496 249 M496 249 C495.03 271.89, 485.57 279.2, 464 281 M496 249 C496.98 269.08, 487.16 278.77, 464 281 M464 281 C353.51 278.81, 242.16 278.61, 32 281 M464 281 C307.85 280.88, 151.06 280.7, 32 281 M32 281 C10.73 281.46, 0.69 271.92, 0 249 M32 281 C8.69 280.16, 1.01 270.08, 0 249 M0 249 C-2.27 205.9, 0.14 162.66, 0 32 M0 249 C0.67 202.58, 1.81 155.9, 0 32 M0 32 C0.3 9.48, 10.64 1.83, 32 0 M0 32 C1.47 8.95, 10.75 -1.68, 32 0" stroke="#ffffff" stroke-width="1" fill="none"></path></g><g transform="translate(34 342.25) rotate(0 75.36993408203125 12.5)"><text x="0" y="0" font-family="Virgil, Segoe UI Emoji" font-size="20px" fill="#ffffff" text-anchor="start" style="white-space: pre;" direction="ltr" dominant-baseline="text-before-edge">Executor pool 1</text></g><g stroke-linecap="round" transform="translate(548.5 398) rotate(0 248 140.5)"><path d="M32 0 M32 0 C174.62 1.31, 317.67 0.85, 464 0 M32 0 C133.38 0.68, 233.96 0.48, 464 0 M464 0 C486.1 1.21, 495.31 8.74, 496 32 M464 0 C483.88 -1.65, 496.77 8.79, 496 32 M496 32 C494.32 98.21, 494.5 161.21, 496 249 M496 32 C496.79 112.46, 496.79 192.77, 496 249 M496 249 C494.7 268.75, 485.03 282.4, 464 281 M496 249 C494.24 271.74, 484.25 280.88, 464 281 M464 281 C306.54 281.97, 151.07 281.99, 32 281 M464 281 C315.63 281.68, 168.65 281.36, 32 281 M32 281 C11.99 281.6, 0.29 268.89, 0 249 M32 281 C8.45 279.47, 0.72 272.37, 0 249 M0 249 C0 181.58, -0.44 113.78, 0 32 M0 249 C0.03 195.02, -0.78 141.83, 0 32 M0 32 C0.64 12.21, 9.83 0, 32 0 M0 32 C0.19 10.15, 9.56 0.39, 32 0" stroke="#ffffff" stroke-width="1" fill="none"></path></g><g transform="translate(572.5 412) rotate(0 79.7799301147461 12.5)"><text x="0" y="0" font-family="Virgil, Segoe UI Emoji" font-size="20px" fill="#ffffff" text-anchor="start" style="white-space: pre;" direction="ltr" dominant-baseline="text-before-edge">Executor pool 2</text></g><g transform="translate(90 434.25) rotate(0 44.01995849609375 12.5)"><text x="0" y="0" font-family="Virgil, Segoe UI Emoji" font-size="20px" fill="#ffffff" text-anchor="start" style="white-space: pre;" direction="ltr" dominant-baseline="text-before-edge">Executor</text></g><g stroke-linecap="round" transform="translate(295.25 370.5) rotate(0 77.5 34.5)"><path d="M17.25 0 M17.25 0 C60.21 0.41, 105.19 2.59, 137.75 0 M17.25 0 C60.19 -1.39, 102.91 -1.11, 137.75 0 M137.75 0 C150.18 0.48, 153.48 6.56, 155 17.25 M137.75 0 C147.51 -0.82, 152.82 6.42, 155 17.25 M155 17.25 C155.55 24.49, 155.57 32.01, 155 51.75 M155 17.25 C154.34 26.48, 154.5 33.62, 155 51.75 M155 51.75 C154.31 64.13, 151.12 70.47, 137.75 69 M155 51.75 C154.58 62.19, 150.59 68.65, 137.75 69 M137.75 69 C90.57 69.01, 42.47 67.11, 17.25 69 M137.75 69 C98.82 69.59, 61.06 70.05, 17.25 69 M17.25 69 C4.76 68.85, -0.6 64.01, 0 51.75 M17.25 69 C4.45 67.47, 1.03 64.83, 0 51.75 M0 51.75 C1.61 45.7, -2.04 35.39, 0 17.25 M0 51.75 C-0.58 38.37, -0.05 25.81, 0 17.25 M0 17.25 C-0.85 7.32, 6.98 -1.44, 17.25 0 M0 17.25 C-0.13 4.75, 6.97 1.63, 17.25 0" stroke="#ffffff" stroke-width="1" fill="none"></path></g><g transform="translate(327.75 391.5) rotate(0 44.01995849609375 12.5)"><text x="0" y="0" font-family="Virgil, Segoe UI Emoji" font-size="20px" fill="#ffffff" text-anchor="start" style="white-space: pre;" direction="ltr" dominant-baseline="text-before-edge">Executor</text></g><g stroke-linecap="round" transform="translate(198.25 502.5) rotate(0 77.5 34.5)"><path d="M17.25 0 M17.25 0 C58.59 -0.69, 101.97 2.68, 137.75 0 M17.25 0 C60.74 1.28, 104.88 0.57, 137.75 0 M137.75 0 C147.43 0.44, 153.83 6.88, 155 17.25 M137.75 0 C148.83 0.28, 153.18 4.07, 155 17.25 M155 17.25 C156.52 26.48, 154.08 37.11, 155 51.75 M155 17.25 C154.87 24.11, 155.31 32.32, 155 51.75 M155 51.75 C154.86 63.25, 150.9 68.81, 137.75 69 M155 51.75 C156.41 63.57, 148.48 68.97, 137.75 69 M137.75 69 C90.44 69.14, 43.52 70.58, 17.25 69 M137.75 69 C106.11 69.99, 74.9 69.84, 17.25 69 M17.25 69 C4.5 69.9, 0.8 63.6, 0 51.75 M17.25 69 C5.62 70.48, -0.92 63.95, 0 51.75 M0 51.75 C-1.4 38.09, -2.23 24.51, 0 17.25 M0 51.75 C-0.11 39.92, -0.75 28.14, 0 17.25 M0 17.25 C0.75 4.54, 6.45 -1.41, 17.25 0 M0 17.25 C1.27 6.7, 4.67 1.39, 17.25 0" stroke="#ffffff" stroke-width="1" fill="none"></path></g><g transform="translate(230.75 523.5) rotate(0 44.01995849609375 12.5)"><text x="0" y="0" font-family="Virgil, Segoe UI Emoji" font-size="20px" fill="#ffffff" text-anchor="start" style="white-space: pre;" direction="ltr" dominant-baseline="text-before-edge">Executor</text></g><g stroke-linecap="round" transform="translate(583.25 469.5) rotate(0 77.5 34.5)"><path d="M17.25 0 M17.25 0 C44.71 -1.01, 70.96 1.39, 137.75 0 M17.25 0 C61.46 1.11, 107.26 0.39, 137.75 0 M137.75 0 C147.92 0.92, 153.46 5.47, 155 17.25 M137.75 0 C147.17 0.32, 156.88 4.48, 155 17.25 M155 17.25 C156.71 25.97, 154.39 33.15, 155 51.75 M155 17.25 C155.89 30.01, 154.4 41.27, 155 51.75 M155 51.75 C153.6 63.38, 147.33 67.56, 137.75 69 M155 51.75 C153.54 61.58, 151.17 67.04, 137.75 69 M137.75 69 C105.42 68.01, 72.8 68.37, 17.25 69 M137.75 69 C101.91 68.86, 67.2 70.5, 17.25 69 M17.25 69 C7.15 70.59, -1.24 62.74, 0 51.75 M17.25 69 C5.33 70.57, -1.19 61.92, 0 51.75 M0 51.75 C-1.57 39.1, 1.69 29.31, 0 17.25 M0 51.75 C-0.94 38.5, -0.69 23.94, 0 17.25 M0 17.25 C-1.36 3.86, 5.5 0.84, 17.25 0 M0 17.25 C1.54 4.73, 6.53 1.7, 17.25 0" stroke="#ffffff" stroke-width="1" fill="none"></path></g><g transform="translate(615.75 490.5) rotate(0 44.01995849609375 12.5)"><text x="0" y="0" font-family="Virgil, Segoe UI Emoji" font-size="20px" fill="#ffffff" text-anchor="start" style="white-space: pre;" direction="ltr" dominant-baseline="text-before-edge">Executor</text></g><g stroke-linecap="round" transform="translate(667.25 578.5) rotate(0 77.5 34.5)"><path d="M17.25 0 M17.25 0 C54.17 1.17, 93.01 0.77, 137.75 0 M17.25 0 C45.51 0.74, 74.23 0.46, 137.75 0 M137.75 0 C147.86 -1.7, 153.91 5.85, 155 17.25 M137.75 0 C149.7 0.16, 153.74 5.33, 155 17.25 M155 17.25 C153.54 26.39, 153.94 29.98, 155 51.75 M155 17.25 C154.94 28.53, 154.45 38.75, 155 51.75 M155 51.75 C154.04 62.39, 147.44 68.31, 137.75 69 M155 51.75 C153.22 65.35, 148.09 68.8, 137.75 69 M137.75 69 C98.42 69.22, 58.9 71.8, 17.25 69 M137.75 69 C99.21 69.32, 60.26 70.24, 17.25 69 M17.25 69 C4.73 68.56, -1.26 62.63, 0 51.75 M17.25 69 C4.18 67.01, 1.93 64.17, 0 51.75 M0 51.75 C0.69 37.66, -1.28 24.94, 0 17.25 M0 51.75 C0.87 40.53, 0.26 27.03, 0 17.25 M0 17.25 C-0.82 3.93, 4.73 -1.55, 17.25 0 M0 17.25 C-1.64 7.67, 7.23 -0.77, 17.25 0" stroke="#ffffff" stroke-width="1" fill="none"></path></g><g transform="translate(699.75 599.5) rotate(0 44.01995849609375 12.5)"><text x="0" y="0" font-family="Virgil, Segoe UI Emoji" font-size="20px" fill="#ffffff" text-anchor="start" style="white-space: pre;" direction="ltr" dominant-baseline="text-before-edge">Executor</text></g><g stroke-linecap="round" transform="translate(812.25 476.5) rotate(0 77.5 34.5)"><path d="M17.25 0 M17.25 0 C55.71 1.19, 91.94 0.16, 137.75 0 M17.25 0 C47.16 1.39, 75.37 0.83, 137.75 0 M137.75 0 C150.82 0.03, 156 4.34, 155 17.25 M137.75 0 C149.67 1.03, 155.9 7.35, 155 17.25 M155 17.25 C153.52 28.1, 156.42 38.53, 155 51.75 M155 17.25 C154.24 27.58, 154.67 37.65, 155 51.75 M155 51.75 C154.87 62.56, 147.37 67.35, 137.75 69 M155 51.75 C155.42 63.17, 150.01 67.05, 137.75 69 M137.75 69 C101.55 69, 62.1 67.84, 17.25 69 M137.75 69 C103.82 69.21, 69.16 69.53, 17.25 69 M17.25 69 C7.61 68.8, -1.15 63.27, 0 51.75 M17.25 69 C5.22 66.9, -1.84 64.23, 0 51.75 M0 51.75 C1.15 42.24, 0.2 32.58, 0 17.25 M0 51.75 C-0.24 41.92, 0.12 31.06, 0 17.25 M0 17.25 C0.37 6.96, 6.31 1.51, 17.25 0 M0 17.25 C-1.96 7.2, 5.72 -0.16, 17.25 0" stroke="#ffffff" stroke-width="1" fill="none"></path></g><g transform="translate(844.75 497.5) rotate(0 44.01995849609375 12.5)"><text x="0" y="0" font-family="Virgil, Segoe UI Emoji" font-size="20px" fill="#ffffff" text-anchor="start" style="white-space: pre;" direction="ltr" dominant-baseline="text-before-edge">Executor</text></g><g stroke-linecap="round" transform="translate(808.5 10.25) rotate(0 74.5 89)"><path d="M32 0 M32 0 C53.85 1.43, 73.76 -0.28, 117 0 M32 0 C57.31 1.03, 85.5 0.07, 117 0 M117 0 C137.44 0.32, 148.65 9.98, 149 32 M117 0 C138.27 -1.36, 146.81 8.4, 149 32 M149 32 C151.37 75.54, 149.16 118.79, 149 146 M149 32 C149.17 70.01, 148.04 107.76, 149 146 M149 146 C147.86 166.75, 139.15 176.83, 117 178 M149 146 C150.04 165.58, 137.95 177.83, 117 178 M117 178 C84.36 177.57, 55.93 180.23, 32 178 M117 178 C98.73 178.71, 78.39 178.55, 32 178 M32 178 C8.94 176.27, 1.66 165.78, 0 146 M32 178 C12.63 176.47, 1.02 166.5, 0 146 M0 146 C-0.9 113.02, 1.27 77.37, 0 32 M0 146 C0.72 120.66, -0.64 96.99, 0 32 M0 32 C-1.13 11.8, 12.43 -0.88, 32 0 M0 32 C-1.73 9.02, 11.75 -0.96, 32 0" stroke="#ffffff" stroke-width="1" fill="none"></path></g><g transform="translate(827.6200408935547 86.75) rotate(0 55.37995910644531 12.5)"><text x="55.37995910644531" y="0" font-family="Virgil, Segoe UI Emoji" font-size="20px" fill="#ffffff" text-anchor="middle" style="white-space: pre;" direction="ltr" dominant-baseline="text-before-edge">Contract C</text></g><g stroke-linecap="round" transform="translate(607.75 10) rotate(0 74.5 89)"><path d="M32 0 M32 0 C53.63 -0.99, 70.8 0.8, 117 0 M32 0 C50.15 1.37, 68.37 0.02, 117 0 M117 0 C137.82 -0.88, 150.92 10.74, 149 32 M117 0 C138.9 -0.67, 148.38 9.17, 149 32 M149 32 C147.39 77.02, 149.97 116.73, 149 146 M149 32 C149.14 55.52, 149.6 77.59, 149 146 M149 146 C149.56 167.2, 136.4 176.36, 117 178 M149 146 C151.03 168.99, 136.92 176.94, 117 178 M117 178 C89.13 177.93, 63.3 178.26, 32 178 M117 178 C98.6 177.87, 82.22 177.99, 32 178 M32 178 C9.42 179.4, 1.11 168.72, 0 146 M32 178 C12.23 176.06, 2.19 165.11, 0 146 M0 146 C-0.82 118.26, -1.02 90.83, 0 32 M0 146 C-0.45 122.53, -1.35 98.64, 0 32 M0 32 C0.8 9.23, 9.68 0.06, 32 0 M0 32 C2.19 10.07, 10.34 -2.14, 32 0" stroke="#ffffff" stroke-width="1" fill="none"></path></g><g transform="translate(626.0400390625 86.5) rotate(0 56.2099609375 12.5)"><text x="56.2099609375" y="0" font-family="Virgil, Segoe UI Emoji" font-size="20px" fill="#ffffff" text-anchor="middle" style="white-space: pre;" direction="ltr" dominant-baseline="text-before-edge">Contract B</text></g><g stroke-linecap="round"><g transform="translate(257 188.25) rotate(0 2.0991459750447916 70.35635269000196)"><path d="M0.69 1.12 C1.5 13.82, 4.6 53.38, 4.61 76.34 C4.63 99.29, 1.18 128.19, 0.77 138.83 M-0.41 0.66 C0.32 13.49, 3.94 54.29, 3.99 77.52 C4.03 100.76, 0.66 129.94, -0.12 140.05" stroke="#ffffff" stroke-width="1" fill="none"></path></g></g><mask></mask><g stroke-linecap="round"><g transform="translate(682 186.25) rotate(0 55.968798246979645 106.42271587922235)"><path d="M-0.37 0.58 C7.36 20.49, 28.43 84.7, 47.21 119.96 C65.99 155.23, 101.69 196.7, 112.31 212.14 M1.64 -0.17 C9.16 19.38, 28.03 82.82, 46.37 118.35 C64.71 153.88, 101.01 197.14, 111.7 213.01" stroke="#ffffff" stroke-width="1" fill="none"></path></g></g><mask></mask><g stroke-linecap="round"><g transform="translate(893 189.25) rotate(0 -47.98355759165713 105.59687472193502)"><path d="M-0.01 0.45 C-3.65 16.05, -5.37 58.54, -21.28 93.49 C-37.19 128.44, -83.02 190.85, -95.47 210.15 M-1.47 -0.36 C-5.26 15.42, -6.1 59.44, -21.85 94.76 C-37.6 130.07, -83.65 192.33, -95.96 211.55" stroke="#ffffff" stroke-width="1" fill="none"></path></g></g><mask></mask></svg>