<svg version="1.1" xmlns="http://www.w3.org/2000/svg" viewBox="0 0 494 323" width="494" height="323">
  <!-- svg-source:excalidraw -->
  
  <defs>
    <style class="style-fonts">
      @font-face {
        font-family: "Virgil";
        src: url("https://excalidraw.com/Virgil.woff2");
      }
      @font-face {
        font-family: "Cascadia";
        src: url("https://excalidraw.com/Cascadia.woff2");
      }
    </style>
  </defs>
  <g stroke-linecap="round" transform="translate(198.5 10) rotate(0 50.5 30)"><path d="M15 0 M15 0 C40.54 -1.65, 63.44 -2.08, 86 0 M15 0 C31.91 -0.53, 50.84 -0.26, 86 0 M86 0 C97.75 1.46, 103 5.67, 101 15 M86 0 C97.91 -0.25, 98.89 6.96, 101 15 M101 15 C99.6 21.79, 99.46 27.66, 101 45 M101 15 C101.04 21.61, 99.97 26.82, 101 45 M101 45 C100.8 53.32, 97.75 58.7, 86 60 M101 45 C99.74 53.81, 96.58 61.65, 86 60 M86 60 C68.6 60.82, 51.76 59.92, 15 60 M86 60 C71.6 59.68, 55.6 59.8, 15 60 M15 60 C4.47 60.89, -1.18 53.98, 0 45 M15 60 C7.03 60.11, 2.18 56.7, 0 45 M0 45 C-0.44 33.48, -0.67 24.4, 0 15 M0 45 C-0.32 36.28, -0.2 25.59, 0 15 M0 15 C1.46 6.53, 5.12 0.95, 15 0 M0 15 C1.01 5.19, 2.87 -1.35, 15 0" stroke="#ffffff" stroke-width="1" fill="none"></path></g><g transform="translate(220.49002075195312 15) rotate(0 28.509979248046875 25)"><text x="28.509979248046875" y="0" font-family="Virgil, Segoe UI Emoji" font-size="20px" fill="#ffffff" text-anchor="middle" style="white-space: pre;" direction="ltr" dominant-baseline="text-before-edge">Root </text><text x="28.509979248046875" y="25" font-family="Virgil, Segoe UI Emoji" font-size="20px" fill="#ffffff" text-anchor="middle" style="white-space: pre;" direction="ltr" dominant-baseline="text-before-edge">Hash</text></g><g stroke-linecap="round" transform="translate(78 131) rotate(0 50.5 27)"><path d="M13.5 0 M13.5 0 C29.62 -0.65, 51.06 1.5, 87.5 0 M13.5 0 C36.98 0.39, 60.69 -0.66, 87.5 0 M87.5 0 C95.1 1.23, 100.63 4.3, 101 13.5 M87.5 0 C94.82 -1.63, 98.86 6.01, 101 13.5 M101 13.5 C100.39 21.44, 102.74 27.97, 101 40.5 M101 13.5 C101.72 20.08, 100.09 26.04, 101 40.5 M101 40.5 C101.03 47.96, 96.61 54.75, 87.5 54 M101 40.5 C99.5 47.74, 98.26 55.38, 87.5 54 M87.5 54 C68.08 55.16, 46.78 54.2, 13.5 54 M87.5 54 C72.18 55.16, 54.35 54.76, 13.5 54 M13.5 54 C5.15 52.56, -0.11 49.57, 0 40.5 M13.5 54 C4.38 52.69, 0.97 48.14, 0 40.5 M0 40.5 C-1.06 34.63, 1.08 26.48, 0 13.5 M0 40.5 C-0.74 30.76, -0.05 20.92, 0 13.5 M0 13.5 C1.34 2.68, 2.89 -1.36, 13.5 0 M0 13.5 C-1.6 2.57, 4.62 -0.07, 13.5 0" stroke="#ffffff" stroke-width="1" fill="none"></path></g><g transform="translate(94.07002258300781 145.5) rotate(0 34.42997741699219 12.5)"><text x="34.42997741699219" y="0" font-family="Virgil, Segoe UI Emoji" font-size="20px" fill="#ffffff" text-anchor="middle" style="white-space: pre;" direction="ltr" dominant-baseline="text-before-edge">Hash 0</text></g><g stroke-linecap="round" transform="translate(316 131) rotate(0 50.5 27)"><path d="M13.5 0 M13.5 0 C36.82 -0.76, 57.1 -1.26, 87.5 0 M13.5 0 C38.04 -0.88, 62.51 0.3, 87.5 0 M87.5 0 C94.67 -1.23, 101.95 4.65, 101 13.5 M87.5 0 C98.45 1.54, 98.91 2.64, 101 13.5 M101 13.5 C100.92 19.7, 100.03 24.22, 101 40.5 M101 13.5 C100.21 19.59, 100.08 23.52, 101 40.5 M101 40.5 C100.13 48.39, 96.09 52.94, 87.5 54 M101 40.5 C101.67 50.09, 95.01 54.07, 87.5 54 M87.5 54 C70.1 54.96, 52.86 54.72, 13.5 54 M87.5 54 C69.79 54.6, 51.55 54.65, 13.5 54 M13.5 54 C5.91 54.84, -1.16 47.53, 0 40.5 M13.5 54 C5.63 54.67, -0.28 50.53, 0 40.5 M0 40.5 C1.24 31.99, 1.36 20.84, 0 13.5 M0 40.5 C-0.36 34.69, 0 28.23, 0 13.5 M0 13.5 C0.25 3.46, 3.65 -0.19, 13.5 0 M0 13.5 C-2.25 2.77, 5.29 -1.32, 13.5 0" stroke="#ffffff" stroke-width="1" fill="none"></path></g><g transform="translate(336.2400207519531 145.5) rotate(0 30.259979248046875 12.5)"><text x="30.259979248046875" y="0" font-family="Virgil, Segoe UI Emoji" font-size="20px" fill="#ffffff" text-anchor="middle" style="white-space: pre;" direction="ltr" dominant-baseline="text-before-edge">Hash 1</text></g><g stroke-linecap="round" transform="translate(254 252) rotate(0 50.5 30)"><path d="M15 0 M15 0 C28.2 1.57, 43.16 -0.61, 86 0 M15 0 C39.74 0.3, 64.94 0.94, 86 0 M86 0 C96.29 -0.71, 100.87 4.56, 101 15 M86 0 C94.43 1.86, 102.37 5.2, 101 15 M101 15 C101.46 24.52, 101.92 30.04, 101 45 M101 15 C101.3 21.59, 100.26 28.72, 101 45 M101 45 C101.49 55.35, 96.6 58.16, 86 60 M101 45 C101.87 56.94, 95.3 58.91, 86 60 M86 60 C64.13 60.03, 43.95 60.13, 15 60 M86 60 C57.43 59.3, 30.44 58.94, 15 60 M15 60 C6.99 61.82, 0.04 54.04, 0 45 M15 60 C6.82 58.9, -0.7 53.7, 0 45 M0 45 C-1.77 33.25, 2.03 22.88, 0 15 M0 45 C-0.82 34.84, -0.43 23.53, 0 15 M0 15 C-1.91 5.51, 4.66 0.06, 15 0 M0 15 C0.33 3.97, 4.52 -1.04, 15 0" stroke="#ffffff" stroke-width="1" fill="none"></path></g><g transform="translate(281.9500198364258 257) rotate(0 22.54998016357422 25)"><text x="22.54998016357422" y="0" font-family="Virgil, Segoe UI Emoji" font-size="20px" fill="#ffffff" text-anchor="middle" style="white-space: pre;" direction="ltr" dominant-baseline="text-before-edge">Hash</text><text x="22.54998016357422" y="25" font-family="Virgil, Segoe UI Emoji" font-size="20px" fill="#ffffff" text-anchor="middle" style="white-space: pre;" direction="ltr" dominant-baseline="text-before-edge">1/0</text></g><g stroke-linecap="round" transform="translate(137 251) rotate(0 50.5 30)"><path d="M15 0 M15 0 C31.28 0.49, 49.19 -1.78, 86 0 M15 0 C33.18 -0.33, 52.65 0.7, 86 0 M86 0 C96.93 0.96, 100.34 5.79, 101 15 M86 0 C95.28 -1.17, 100.07 4.61, 101 15 M101 15 C101.68 25.55, 102.91 33.52, 101 45 M101 15 C101.15 26.02, 100.5 35.69, 101 45 M101 45 C99.47 56.47, 96.33 59.58, 86 60 M101 45 C102.01 55.1, 94.53 59.33, 86 60 M86 60 C70.31 61.9, 57.19 58.75, 15 60 M86 60 C57.98 60.34, 31.42 60.12, 15 60 M15 60 C4.94 61.43, 0.82 54.61, 0 45 M15 60 C4.57 58.05, -1.3 53.62, 0 45 M0 45 C0.65 35.44, 0.56 24.47, 0 15 M0 45 C-0.43 35.69, -0.3 25.59, 0 15 M0 15 C0.04 3.92, 4.59 1.65, 15 0 M0 15 C1.07 3.43, 7.28 0.55, 15 0" stroke="#ffffff" stroke-width="1" fill="none"></path></g><g transform="translate(154.95001983642578 256) rotate(0 32.54998016357422 25)"><text x="32.54998016357422" y="0" font-family="Virgil, Segoe UI Emoji" font-size="20px" fill="#ffffff" text-anchor="middle" style="white-space: pre;" direction="ltr" dominant-baseline="text-before-edge"> Hash </text><text x="32.54998016357422" y="25" font-family="Virgil, Segoe UI Emoji" font-size="20px" fill="#ffffff" text-anchor="middle" style="white-space: pre;" direction="ltr" dominant-baseline="text-before-edge">0/1</text></g><g stroke-linecap="round" transform="translate(10 249) rotate(0 50.5 30)"><path d="M15 0 M15 0 C33.14 1.23, 54.26 -0.2, 86 0 M15 0 C36.69 0.68, 58.96 -0.71, 86 0 M86 0 C96.29 -0.74, 99.05 6.18, 101 15 M86 0 C95.84 0.21, 99.83 5.64, 101 15 M101 15 C99.53 27.39, 99.15 39.27, 101 45 M101 15 C101.48 23.36, 101.87 33.58, 101 45 M101 45 C100.52 56.41, 96.31 61.43, 86 60 M101 45 C99.38 57.22, 96.62 58.89, 86 60 M86 60 C65.13 60.17, 45.28 60.39, 15 60 M86 60 C67.95 59.96, 50 59.25, 15 60 M15 60 C5.36 60.82, -0.79 53.49, 0 45 M15 60 C5.74 60.78, -0.87 54.79, 0 45 M0 45 C1.59 36.49, 1.68 29.53, 0 15 M0 45 C0.22 38.36, 0.69 30.71, 0 15 M0 15 C1.99 5.8, 3.5 1.92, 15 0 M0 15 C0.93 6.92, 4.35 1.54, 15 0" stroke="#ffffff" stroke-width="1" fill="none"></path></g><g transform="translate(32.95001983642578 254) rotate(0 27.54998016357422 25)"><text x="27.54998016357422" y="0" font-family="Virgil, Segoe UI Emoji" font-size="20px" fill="#ffffff" text-anchor="middle" style="white-space: pre;" direction="ltr" dominant-baseline="text-before-edge">Hash </text><text x="27.54998016357422" y="25" font-family="Virgil, Segoe UI Emoji" font-size="20px" fill="#ffffff" text-anchor="middle" style="white-space: pre;" direction="ltr" dominant-baseline="text-before-edge">0/0</text></g><g stroke-linecap="round" transform="translate(383 253) rotate(0 50.5 30)"><path d="M15 0 M15 0 C39.84 1.21, 62.63 0.35, 86 0 M15 0 C34.96 0.25, 54.1 0.8, 86 0 M86 0 C94.52 0.44, 100.72 5.56, 101 15 M86 0 C96.31 1.73, 99.3 7.28, 101 15 M101 15 C101.59 26.87, 100.21 36.74, 101 45 M101 15 C101.03 25.43, 101.76 35.63, 101 45 M101 45 C101.8 55.15, 94.25 61.52, 86 60 M101 45 C99.24 55.34, 95.02 59, 86 60 M86 60 C67.1 62.06, 46.86 58.46, 15 60 M86 60 C69.04 60.62, 51.05 60.97, 15 60 M15 60 C3.41 58.41, 0.34 54.77, 0 45 M15 60 C4.53 59.76, 1.91 55.6, 0 45 M0 45 C1.93 37, -1.6 28.98, 0 15 M0 45 C0.2 39.19, 0.95 31.2, 0 15 M0 15 C-0.44 3.31, 4.93 1.99, 15 0 M0 15 C0.89 5.79, 4.88 -0.68, 15 0" stroke="#ffffff" stroke-width="1" fill="none"></path></g><g transform="translate(410.9500198364258 258) rotate(0 22.54998016357422 25)"><text x="22.54998016357422" y="0" font-family="Virgil, Segoe UI Emoji" font-size="20px" fill="#ffffff" text-anchor="middle" style="white-space: pre;" direction="ltr" dominant-baseline="text-before-edge">Hash</text><text x="22.54998016357422" y="25" font-family="Virgil, Segoe UI Emoji" font-size="20px" fill="#ffffff" text-anchor="middle" style="white-space: pre;" direction="ltr" dominant-baseline="text-before-edge">1/1</text></g><g stroke-linecap="round"><g transform="translate(67.5 247) rotate(0 20.37808212339877 -27.69782141745091)"><path d="M-0.97 0.44 C5.97 -8.89, 34.73 -46.47, 41.72 -55.84 M0.73 -0.37 C7.48 -9.59, 33.52 -45.66, 40.63 -54.74" stroke="#ffffff" stroke-width="1" fill="none"></path></g><g transform="translate(67.5 247) rotate(0 20.37808212339877 -27.69782141745091)"><path d="M32.7 -26.49 C33.18 -36.44, 35.96 -43.08, 41.3 -55.42 M31.98 -25.8 C33 -32.48, 35.18 -39.32, 40.63 -55.55" stroke="#ffffff" stroke-width="1" fill="none"></path></g><g transform="translate(67.5 247) rotate(0 20.37808212339877 -27.69782141745091)"><path d="M16.27 -38.78 C21.81 -44.83, 29.64 -47.68, 41.3 -55.42 M15.55 -38.09 C20.12 -42.06, 25.86 -46.23, 40.63 -55.55" stroke="#ffffff" stroke-width="1" fill="none"></path></g></g><mask></mask><g stroke-linecap="round"><g transform="translate(190.5 250) rotate(0 -23.215244533261284 -28.212347365547913)"><path d="M-0.31 1.13 C-8.12 -8.13, -39.62 -46.12, -47.82 -55.63 M1.72 0.68 C-6.06 -8.95, -39.44 -48.36, -48.16 -57.55" stroke="#ffffff" stroke-width="1" fill="none"></path></g><g transform="translate(190.5 250) rotate(0 -23.215244533261284 -28.212347365547913)"><path d="M-19.89 -41.32 C-26.97 -47.41, -33.23 -50.06, -49.22 -57.37 M-22.11 -42.65 C-30.99 -48.28, -39.64 -54.16, -48.76 -56.9" stroke="#ffffff" stroke-width="1" fill="none"></path></g><g transform="translate(190.5 250) rotate(0 -23.215244533261284 -28.212347365547913)"><path d="M-35.23 -27.7 C-38.92 -36.76, -41.79 -42.41, -49.22 -57.37 M-37.45 -29.03 C-40.84 -39.39, -44.14 -50.03, -48.76 -56.9" stroke="#ffffff" stroke-width="1" fill="none"></path></g></g><mask></mask><g stroke-linecap="round"><g transform="translate(306.5 250) rotate(0 21.60173324644569 -30.470679695536376)"><path d="M-0.34 -0.13 C6.78 -9.94, 36.36 -48.99, 43.54 -59.14 M1.68 -1.24 C8.62 -11.36, 36.19 -50.98, 42.88 -60.82" stroke="#ffffff" stroke-width="1" fill="none"></path></g><g transform="translate(306.5 250) rotate(0 21.60173324644569 -30.470679695536376)"><path d="M35.12 -30.87 C39.62 -42.93, 39.27 -53.08, 41.86 -61.95 M35.34 -31.42 C37.38 -37.92, 39.33 -45.03, 42.44 -61.64" stroke="#ffffff" stroke-width="1" fill="none"></path></g><g transform="translate(306.5 250) rotate(0 21.60173324644569 -30.470679695536376)"><path d="M18.22 -42.52 C28.94 -50.22, 34.84 -56.07, 41.86 -61.95 M18.44 -43.06 C24.12 -47.13, 29.73 -51.73, 42.44 -61.64" stroke="#ffffff" stroke-width="1" fill="none"></path></g></g><mask></mask><g stroke-linecap="round"><g transform="translate(433.5 252) rotate(0 -23.907329624961108 -29.997348534469495)"><path d="M1.1 -0.81 C-6.74 -11.09, -39.6 -51.43, -47.98 -61.37 M0.21 1.37 C-7.69 -8.75, -41.06 -49.39, -48.91 -60.02" stroke="#ffffff" stroke-width="1" fill="none"></path></g><g transform="translate(433.5 252) rotate(0 -23.907329624961108 -29.997348534469495)"><path d="M-24.8 -44.14 C-29.69 -49.41, -33.68 -52.89, -50.17 -60.95 M-22.82 -44.6 C-33.07 -50.25, -41.89 -55.42, -48.68 -60.45" stroke="#ffffff" stroke-width="1" fill="none"></path></g><g transform="translate(433.5 252) rotate(0 -23.907329624961108 -29.997348534469495)"><path d="M-40.94 -31.47 C-42.31 -39.67, -42.76 -45.94, -50.17 -60.95 M-38.96 -31.93 C-43.25 -42.27, -46.07 -52.15, -48.68 -60.45" stroke="#ffffff" stroke-width="1" fill="none"></path></g></g><mask></mask><g stroke-linecap="round"><g transform="translate(128.5 130) rotate(0 46.269368305802345 -30.022510614991177)"><path d="M-0.33 -0.43 C15.3 -10.22, 77.4 -49.96, 92.87 -59.62 M1.7 -1.7 C17.33 -11.26, 77.33 -48.62, 92.38 -58.41" stroke="#ffffff" stroke-width="1" fill="none"></path></g><g transform="translate(128.5 130) rotate(0 46.269368305802345 -30.022510614991177)"><path d="M73.36 -33.19 C77.28 -39.04, 83.42 -44.65, 92.54 -60.07 M74.93 -33.93 C80.5 -44.29, 88.73 -53.48, 92.58 -57.46" stroke="#ffffff" stroke-width="1" fill="none"></path></g><g transform="translate(128.5 130) rotate(0 46.269368305802345 -30.022510614991177)"><path d="M62.37 -50.53 C68.62 -52.48, 77.2 -54.23, 92.54 -60.07 M63.94 -51.26 C73.78 -54.93, 86.31 -57.34, 92.58 -57.46" stroke="#ffffff" stroke-width="1" fill="none"></path></g></g><mask></mask><g stroke-linecap="round"><g transform="translate(369.5 130) rotate(0 -47.64422583043108 -30.448281279206284)"><path d="M0.16 -0.03 C-15.77 -10.07, -79 -50.69, -95.02 -60.87 M-1.22 -1.09 C-17.27 -10.86, -79.53 -49.47, -95.45 -59.26" stroke="#ffffff" stroke-width="1" fill="none"></path></g><g transform="translate(369.5 130) rotate(0 -47.64422583043108 -30.448281279206284)"><path d="M-66.12 -51.53 C-76.05 -55.18, -86.65 -58.87, -94.71 -58.87 M-65.24 -52.43 C-78.33 -55.78, -89.45 -57.27, -96.09 -58.72" stroke="#ffffff" stroke-width="1" fill="none"></path></g><g transform="translate(369.5 130) rotate(0 -47.64422583043108 -30.448281279206284)"><path d="M-76.9 -34.07 C-82.99 -43.82, -89.83 -53.59, -94.71 -58.87 M-76.02 -34.98 C-84.64 -45.27, -91.45 -53.74, -96.09 -58.72" stroke="#ffffff" stroke-width="1" fill="none"></path></g></g><mask></mask></svg>