<svg version="1.1" xmlns="http://www.w3.org/2000/svg" viewBox="0 0 610 537" width="610" height="537">
  <!-- svg-source:excalidraw -->
  
  <defs>
    <style class="style-fonts">
      @font-face {
        font-family: "Virgil";
        src: url("https://excalidraw.com/Virgil.woff2");
      }
      @font-face {
        font-family: "Cascadia";
        src: url("https://excalidraw.com/Cascadia.woff2");
      }
    </style>
  </defs>
  <g stroke-linecap="round" transform="translate(10 51) rotate(0 74.5 89)"><path d="M32 0 M32 0 C59.73 -2.6, 84.33 -1.11, 117 0 M32 0 C51.06 -0.88, 68.67 -0.07, 117 0 M117 0 C136.79 0.21, 147.94 10.2, 149 32 M117 0 C137.33 -0.43, 150.5 10.98, 149 32 M149 32 C148.01 63.72, 148.22 96.12, 149 146 M149 32 C149.97 71.45, 150.74 112.46, 149 146 M149 146 C149.8 167.1, 138.57 179.7, 117 178 M149 146 C150.34 168.47, 138.09 178.24, 117 178 M117 178 C98.77 177.71, 76.23 179.04, 32 178 M117 178 C99.36 178.76, 80.84 179.32, 32 178 M32 178 C10.52 178.96, 0.06 166.13, 0 146 M32 178 C8.58 178.19, -0.16 166.16, 0 146 M0 146 C1.32 113.75, 1.35 82.53, 0 32 M0 146 C0.54 102.78, -0.71 58.83, 0 32 M0 32 C-1.61 11.69, 9.42 1.27, 32 0 M0 32 C-1.63 8.74, 11.19 2.23, 32 0" stroke="#ffffff" stroke-width="1" fill="none"></path></g><g transform="translate(62.63002014160156 115) rotate(0 21.869979858398438 25)"><text x="21.869979858398438" y="0" font-family="Virgil, Segoe UI Emoji" font-size="20px" fill="#ffffff" text-anchor="middle" style="white-space: pre;" direction="ltr" dominant-baseline="text-before-edge">Alice</text><text x="21.869979858398438" y="25" font-family="Virgil, Segoe UI Emoji" font-size="20px" fill="#ffffff" text-anchor="middle" style="white-space: pre;" direction="ltr" dominant-baseline="text-before-edge">🔑</text></g><g stroke-linecap="round" transform="translate(233.5 10) rotate(0 74.5 89)"><path d="M32 0 M32 0 C56.29 2.11, 83.56 0.5, 117 0 M32 0 C57.1 -0.61, 81.57 -0.62, 117 0 M117 0 C136.56 1.3, 148.79 9.75, 149 32 M117 0 C139.9 -1.67, 148.31 10.71, 149 32 M149 32 C150.13 58.6, 150.1 87.74, 149 146 M149 32 C147.35 63.97, 148.17 94.21, 149 146 M149 146 C150.51 167.37, 139.35 178.21, 117 178 M149 146 C147.46 168.7, 138.01 180.04, 117 178 M117 178 C92.99 178.85, 69.03 177.6, 32 178 M117 178 C85.73 178.25, 56.4 178.85, 32 178 M32 178 C9.61 176.43, 0.87 168.59, 0 146 M32 178 C9.14 178.2, -1.19 167.22, 0 146 M0 146 C-0.21 112.84, -1.64 81.08, 0 32 M0 146 C0 101.66, -0.77 54.86, 0 32 M0 32 C0.84 11.42, 11.54 0.55, 32 0 M0 32 C-0.43 8.8, 12.45 0.41, 32 0" stroke="#ffffff" stroke-width="1" fill="none"></path></g><g transform="translate(290.1100158691406 74) rotate(0 17.889984130859375 25)"><text x="17.889984130859375" y="0" font-family="Virgil, Segoe UI Emoji" font-size="20px" fill="#ffffff" text-anchor="middle" style="white-space: pre;" direction="ltr" dominant-baseline="text-before-edge">Bob</text><text x="17.889984130859375" y="25" font-family="Virgil, Segoe UI Emoji" font-size="20px" fill="#ffffff" text-anchor="middle" style="white-space: pre;" direction="ltr" dominant-baseline="text-before-edge">🔑</text></g><g stroke-linecap="round" transform="translate(451 45) rotate(0 74.5 89)"><path d="M32 0 M32 0 C48.46 0.63, 65.88 -1.95, 117 0 M32 0 C64.23 0.15, 97.61 0.44, 117 0 M117 0 C138.96 1.18, 150.95 10.28, 149 32 M117 0 C140.13 0.42, 150.47 10.85, 149 32 M149 32 C150.29 77.5, 148.98 119.42, 149 146 M149 32 C148.78 70.54, 149.13 110.74, 149 146 M149 146 C147.69 168.49, 138.88 179.34, 117 178 M149 146 C147.05 165.11, 139.16 180.17, 117 178 M117 178 C82.4 177.38, 50.15 179.62, 32 178 M117 178 C89.45 177.37, 63.99 176.85, 32 178 M32 178 C9.77 177.34, 0.58 169.13, 0 146 M32 178 C12.09 179.86, 0.27 166.98, 0 146 M0 146 C-0.55 109.36, 0.99 72.14, 0 32 M0 146 C-0.37 101.95, 0.27 56.39, 0 32 M0 32 C-0.25 10.07, 9.17 0.83, 32 0 M0 32 C-0.18 11.32, 11.65 -1.91, 32 0" stroke="#ffffff" stroke-width="1" fill="none"></path></g><g transform="translate(499.9200210571289 109) rotate(0 25.579978942871094 25)"><text x="25.579978942871094" y="0" font-family="Virgil, Segoe UI Emoji" font-size="20px" fill="#ffffff" text-anchor="middle" style="white-space: pre;" direction="ltr" dominant-baseline="text-before-edge">Carol</text><text x="25.579978942871094" y="25" font-family="Virgil, Segoe UI Emoji" font-size="20px" fill="#ffffff" text-anchor="middle" style="white-space: pre;" direction="ltr" dominant-baseline="text-before-edge">🔑</text></g><g stroke-linecap="round" transform="translate(234.5 349) rotate(0 74.5 89)"><path d="M32 0 M32 0 C63.1 -0.16, 96.13 -1.97, 117 0 M32 0 C53.18 -0.32, 73.01 1.19, 117 0 M117 0 C138.6 0.49, 148.28 9.09, 149 32 M117 0 C139.44 2.01, 151.17 9.44, 149 32 M149 32 C150.24 59.39, 151.03 84.96, 149 146 M149 32 C147.48 60.76, 148.49 90.32, 149 146 M149 146 C148.56 167.57, 137.26 179.93, 117 178 M149 146 C150.29 168.33, 136.13 179.64, 117 178 M117 178 C96.74 179.94, 74.62 176.34, 32 178 M117 178 C96.59 178.41, 77.36 177.63, 32 178 M32 178 C11.21 179.03, 0.75 168.34, 0 146 M32 178 C9.61 176.5, -0.83 169.55, 0 146 M0 146 C0.88 111.68, 0.81 77.36, 0 32 M0 146 C0.12 106.96, 0.13 66.54, 0 32 M0 32 C-1.8 9.9, 12.11 -0.46, 32 0 M0 32 C-1.49 12.03, 8.45 -1.23, 32 0" stroke="#ffffff" stroke-width="1" fill="none"></path></g><g transform="translate(284.28515625 415.5) rotate(0 24.71484375 22.5)"><text x="24.71484375" y="0" font-family="Virgil, Segoe UI Emoji" font-size="36px" fill="#ffffff" text-anchor="middle" style="white-space: pre;" direction="ltr" dominant-baseline="text-before-edge">🔒</text></g><g stroke-linecap="round"><g transform="translate(83 230) rotate(0 113.90051587470344 59.67178780853283)"><path d="M0.43 0.33 C38.62 20.34, 190.57 100.24, 228.61 119.89 M-0.81 -0.54 C37.33 19.15, 189.81 98.28, 227.98 118.23" stroke="#ffffff" stroke-width="1" fill="none"></path></g></g><mask></mask><g stroke-linecap="round"><g transform="translate(306 188) rotate(0 1.2189680565194863 79.44534065796995)"><path d="M0.58 1.03 C0.93 27.16, 2.75 131.12, 3.01 157.24 M-0.57 0.52 C-0.38 26.76, 2.26 131.98, 2.59 158.37" stroke="#ffffff" stroke-width="1" fill="none"></path></g></g><mask></mask><g stroke-linecap="round"><g transform="translate(310 348) rotate(0 108.81111258224115 -62.78911007940769)"><path d="M-0.22 -0.43 C36.53 -21.15, 182.83 -104.51, 219.42 -125.15 M-1.79 -1.7 C34.93 -22.16, 181.93 -102.93, 218.69 -123.69" stroke="#ffffff" stroke-width="1" fill="none"></path></g></g><mask></mask></svg>