<svg version="1.1" xmlns="http://www.w3.org/2000/svg" viewBox="0 0 740 338" width="740" height="338">
  <!-- svg-source:excalidraw -->
  
  <defs>
    <style class="style-fonts">
      @font-face {
        font-family: "Virgil";
        src: url("https://excalidraw.com/Virgil.woff2");
      }
      @font-face {
        font-family: "Cascadia";
        src: url("https://excalidraw.com/Cascadia.woff2");
      }
    </style>
  </defs>
  <g stroke-linecap="round" transform="translate(285.25 77.25) rotate(0 74.5 89)"><path d="M32 0 M32 0 C53.85 1.43, 73.76 -0.28, 117 0 M32 0 C57.31 1.03, 85.5 0.07, 117 0 M117 0 C137.44 0.32, 148.65 9.98, 149 32 M117 0 C138.27 -1.36, 146.81 8.4, 149 32 M149 32 C151.37 75.54, 149.16 118.79, 149 146 M149 32 C149.17 70.01, 148.04 107.76, 149 146 M149 146 C147.86 166.75, 139.15 176.83, 117 178 M149 146 C150.04 165.58, 137.95 177.83, 117 178 M117 178 C84.36 177.57, 55.93 180.23, 32 178 M117 178 C98.73 178.71, 78.39 178.55, 32 178 M32 178 C8.94 176.27, 1.66 165.78, 0 146 M32 178 C12.63 176.47, 1.02 166.5, 0 146 M0 146 C-0.9 113.02, 1.27 77.37, 0 32 M0 146 C0.72 120.66, -0.64 96.99, 0 32 M0 32 C-1.13 11.8, 12.43 -0.88, 32 0 M0 32 C-1.73 9.02, 11.75 -0.96, 32 0" stroke="#ffffff" stroke-width="1" fill="none"></path></g><g transform="translate(298.0300598144531 153.75) rotate(0 61.719940185546875 12.5)"><text x="61.719940185546875" y="0" font-family="Virgil, Segoe UI Emoji" font-size="20px" fill="#ffffff" text-anchor="middle" style="white-space: pre;" direction="ltr" dominant-baseline="text-before-edge">Merkle trees</text></g><g stroke-linecap="round" transform="translate(85.5 77) rotate(0 74.5 89)"><path d="M32 0 M32 0 C53.63 -0.99, 70.8 0.8, 117 0 M32 0 C50.15 1.37, 68.37 0.02, 117 0 M117 0 C137.82 -0.88, 150.92 10.74, 149 32 M117 0 C138.9 -0.67, 148.38 9.17, 149 32 M149 32 C147.39 77.02, 149.97 116.73, 149 146 M149 32 C149.14 55.52, 149.6 77.59, 149 146 M149 146 C149.56 167.2, 136.4 176.36, 117 178 M149 146 C151.03 168.99, 136.92 176.94, 117 178 M117 178 C89.13 177.93, 63.3 178.26, 32 178 M117 178 C98.6 177.87, 82.22 177.99, 32 178 M32 178 C9.42 179.4, 1.11 168.72, 0 146 M32 178 C12.23 176.06, 2.19 165.11, 0 146 M0 146 C-0.82 118.26, -1.02 90.83, 0 32 M0 146 C-0.45 122.53, -1.35 98.64, 0 32 M0 32 C0.8 9.23, 9.68 0.06, 32 0 M0 32 C2.19 10.07, 10.34 -2.14, 32 0" stroke="#ffffff" stroke-width="1" fill="none"></path></g><g transform="translate(132.32001495361328 153.5) rotate(0 27.67998504638672 12.5)"><text x="27.67998504638672" y="0" font-family="Virgil, Segoe UI Emoji" font-size="20px" fill="#ffffff" text-anchor="middle" style="white-space: pre;" direction="ltr" dominant-baseline="text-before-edge">DAGs</text></g><g stroke-linecap="round" transform="translate(492.5 80) rotate(0 74.5 89)"><path d="M32 0 M32 0 C55.61 -1.57, 79.88 1.92, 117 0 M32 0 C64.12 -0.36, 95.43 0.15, 117 0 M117 0 C140.04 -0.71, 150.34 10.68, 149 32 M117 0 C136.91 -1.22, 148.4 10.8, 149 32 M149 32 C150.97 77.32, 148.54 122.45, 149 146 M149 32 C147.87 58.83, 147.54 87.03, 149 146 M149 146 C147.56 168.56, 136.46 176.74, 117 178 M149 146 C148.63 166.33, 140.22 176, 117 178 M117 178 C83.89 178.43, 50.06 180.14, 32 178 M117 178 C96.41 177.19, 76.62 177.46, 32 178 M32 178 C8.97 176.97, -0.89 165.94, 0 146 M32 178 C12.65 176.15, 1.16 165.63, 0 146 M0 146 C-0.28 101.7, 1.43 60.83, 0 32 M0 146 C1.59 101.56, 0.12 56.13, 0 32 M0 32 C0.91 9.79, 11.45 0.41, 32 0 M0 32 C0.51 12.07, 9.12 -1.62, 32 0" stroke="#ffffff" stroke-width="1" fill="none"></path></g><g transform="translate(532.5100250244141 156.5) rotate(0 34.48997497558594 12.5)"><text x="34.48997497558594" y="0" font-family="Virgil, Segoe UI Emoji" font-size="20px" fill="#ffffff" text-anchor="middle" style="white-space: pre;" direction="ltr" dominant-baseline="text-before-edge">CRDTs</text></g><g stroke-linecap="round" transform="translate(10 10) rotate(0 360 159)"><path d="M32 0 M32 0 C284.79 1.7, 537.63 1.66, 688 0 M32 0 C167.93 1.11, 304.12 1.4, 688 0 M688 0 C709.45 0.56, 718.55 10.81, 720 32 M688 0 C711.37 -1.57, 721.32 10.36, 720 32 M720 32 C719.22 131.82, 721.23 228.52, 720 286 M720 32 C720.99 105.18, 720.81 177.62, 720 286 M720 286 C719.24 309.05, 710.4 319.87, 688 318 M720 286 C719.04 305.97, 710.26 319.24, 688 318 M688 318 C440.44 319.09, 195.13 318.43, 32 318 M688 318 C429.28 320.39, 171.09 320.4, 32 318 M32 318 C9.46 318.23, -1.59 306.03, 0 286 M32 318 C8.83 317.35, 1.7 307.68, 0 286 M0 286 C1.23 194.93, 2.68 106.74, 0 32 M0 286 C1.52 224.53, 0.45 164.29, 0 32 M0 32 C1.75 10.83, 11.76 1.87, 32 0 M0 32 C0.07 11.18, 10.98 -0.48, 32 0" stroke="#ffffff" stroke-width="1" fill="none"></path></g><g transform="translate(32 24) rotate(0 49.49995422363281 12.5)"><text x="0" y="0" font-family="Virgil, Segoe UI Emoji" font-size="20px" fill="#ffffff" text-anchor="start" style="white-space: pre;" direction="ltr" dominant-baseline="text-before-edge">Scalability</text></g></svg>